<svg xmlns="http://www.w3.org/2000/svg" viewBox="0 0 55.14 55.14"><defs><style>.cls-1{fill:#32b4e4;}</style></defs><title>favicon</title><g id="Capa_2" data-name="Capa 2"><g id="Layer_2" data-name="Layer 2"><path class="cls-1" d="M27.63,0A26.84,26.84,0,0,1,38.38,2.15,27.75,27.75,0,0,1,53,16.76a26.82,26.82,0,0,1,2.15,10.75V55.14H27.63A27,27,0,0,1,16.95,53a27.86,27.86,0,0,1-14.8-14.8A26.92,26.92,0,0,1,0,27.51,26.79,26.79,0,0,1,2.15,16.76,27.32,27.32,0,0,1,8.11,8a28.38,28.38,0,0,1,8.84-5.89A27,27,0,0,1,27.63,0ZM44.21,44.21V27.51a16.17,16.17,0,0,0-1.29-6.45,16.68,16.68,0,0,0-8.84-8.84,16.18,16.18,0,0,0-6.45-1.29A16.59,16.59,0,0,0,12.22,21.06a16.19,16.19,0,0,0-1.29,6.45,16.76,16.76,0,0,0,4.85,11.85,16.76,16.76,0,0,0,11.85,4.85Z"/></g></g></svg>