<svg xmlns="http://www.w3.org/2000/svg" viewBox="0 0 349.56 47.16"><defs><style>.cls-1{fill:#32b4e4;}.cls-2{fill:#003764;}</style></defs><title>logo</title><g id="Capa_2" data-name="Capa 2"><g id="Layer_2" data-name="Layer 2"><path class="cls-1" d="M17.13.06a16.64,16.64,0,0,1,6.66,1.33,17.2,17.2,0,0,1,9.06,9.06,16.62,16.62,0,0,1,1.33,6.66V34.23h-17A16.71,16.71,0,0,1,10.5,32.9a17.27,17.27,0,0,1-9.17-9.17A16.69,16.69,0,0,1,0,17.11a16.61,16.61,0,0,1,1.33-6.66A16.93,16.93,0,0,1,5,5,17.59,17.59,0,0,1,10.5,1.39,16.73,16.73,0,0,1,17.13.06ZM27.4,27.46V17.11a10,10,0,0,0-.8-4,10.34,10.34,0,0,0-5.48-5.48,10,10,0,0,0-4-.8,10.28,10.28,0,0,0-9.55,6.28,10,10,0,0,0-.8,4,10.39,10.39,0,0,0,3,7.35,10.39,10.39,0,0,0,7.35,3Z"/><path class="cls-2" d="M54.8.21a16.62,16.62,0,0,1,6.66,1.33A17.68,17.68,0,0,1,66.9,5.2a17,17,0,0,1,3.69,5.4,16.63,16.63,0,0,1,1.33,6.66V47.16H65.15V34.38H54.8a16.88,16.88,0,0,1-12.06-5,17.53,17.53,0,0,1-3.65-5.48,16.69,16.69,0,0,1-1.33-6.62,16.61,16.61,0,0,1,1.33-6.66,17.08,17.08,0,0,1,9.09-9.06A16.7,16.7,0,0,1,54.8.21Zm10.35,27.4V17.26a10.05,10.05,0,0,0-.8-4A10.41,10.41,0,0,0,62.15,10,10.39,10.39,0,0,0,54.8,7a10,10,0,0,0-4,.8,10.34,10.34,0,0,0-5.48,5.48,10.05,10.05,0,0,0-.8,4,10.32,10.32,0,0,0,.8,4,10.21,10.21,0,0,0,2.21,3.31,10.32,10.32,0,0,0,3.27,2.21,10.07,10.07,0,0,0,4,.8Z"/><path class="cls-2" d="M109.91.06v17a16.69,16.69,0,0,1-1.33,6.62,17.37,17.37,0,0,1-9.13,9.17,17,17,0,0,1-18.72-3.69,17.51,17.51,0,0,1-3.65-5.48,16.71,16.71,0,0,1-1.33-6.62V.06h6.77v17a10.28,10.28,0,0,0,6.28,9.55,10,10,0,0,0,4,.8,10.29,10.29,0,0,0,4-.8,10.14,10.14,0,0,0,5.52-5.52,10.3,10.3,0,0,0,.8-4V.06Z"/><path class="cls-2" d="M130.46.06a16.64,16.64,0,0,1,6.66,1.33,17.18,17.18,0,0,1,9.06,9.06,16.63,16.63,0,0,1,1.33,6.66V34.23H130.46a16.69,16.69,0,0,1-6.62-1.33,17.26,17.26,0,0,1-9.17-9.17,16.69,16.69,0,0,1-1.33-6.62,16.6,16.6,0,0,1,1.33-6.66A16.92,16.92,0,0,1,118.36,5a17.56,17.56,0,0,1,5.48-3.65A16.71,16.71,0,0,1,130.46.06Zm10.27,27.4V17.11a10.07,10.07,0,0,0-.8-4,10.35,10.35,0,0,0-5.48-5.48,10,10,0,0,0-4-.8,10.29,10.29,0,0,0-9.55,6.28,10,10,0,0,0-.8,4,10.38,10.38,0,0,0,3,7.35,10.39,10.39,0,0,0,7.35,3Z"/><path class="cls-2" d="M184.44,29.15H176.7a1,1,0,0,1-1-1V9.19a1,1,0,0,1,1-1h7c3.62,0,6.08,2.17,6.08,5.19a5,5,0,0,1-2.86,4.5,5.63,5.63,0,0,1,4.22,5.32C191.12,26.38,188.79,29.15,184.44,29.15ZM184,10h-6.23v7.15H184a3.43,3.43,0,0,0,3.71-3.56A3.45,3.45,0,0,0,184,10Zm1.13,9h-7.37v8.25h7.37a3.78,3.78,0,0,0,4-4.12A4,4,0,0,0,185.1,19Z"/><path class="cls-2" d="M205.82,22.82H194.58a5.24,5.24,0,0,0,5.29,5.1,6,6,0,0,0,4.66-2.2.76.76,0,0,1,.6-.31.84.84,0,0,1,.5.19.78.78,0,0,1,.28.6.84.84,0,0,1-.19.5,7.6,7.6,0,0,1-5.92,2.83,7.14,7.14,0,0,1-7.18-7.21,7,7,0,0,1,7-7.21,6.93,6.93,0,0,1,6.89,7.05A.65.65,0,0,1,205.82,22.82Zm-6.17-6.11a5,5,0,0,0-5.07,4.69h10.07A5,5,0,0,0,199.65,16.71Z"/><path class="cls-2" d="M217.11,16.78c-2.77,0-5.32,1.92-5.32,4.82v6.86a1,1,0,0,1-.94.94.92.92,0,0,1-.91-.94V16.18a.9.9,0,0,1,.91-.94,1,1,0,0,1,.94.94v1.61a6,6,0,0,1,5.32-2.68.82.82,0,0,1,.82.85A.79.79,0,0,1,217.11,16.78Z"/><path class="cls-2" d="M231.53,29.37l-.22,0a.78.78,0,0,1-.6-.28l-6-7-2,1.61v4.69a.94.94,0,0,1-.91.94,1,1,0,0,1-.94-.94V8.84a1,1,0,0,1,.94-.94.92.92,0,0,1,.91.94V21.56l7.74-6.14a.85.85,0,0,1,.54-.19.81.81,0,0,1,.69.31.88.88,0,0,1,.19.57.82.82,0,0,1-.35.66l-5.41,4.34L232,28a1,1,0,0,1,.19.6A.81.81,0,0,1,231.53,29.37Z"/><path class="cls-2" d="M246.76,22.82H235.53a5.24,5.24,0,0,0,5.29,5.1,6,6,0,0,0,4.66-2.2.76.76,0,0,1,.6-.31.84.84,0,0,1,.5.19.78.78,0,0,1,.28.6.84.84,0,0,1-.19.5,7.6,7.6,0,0,1-5.92,2.83,7.14,7.14,0,0,1-7.18-7.21,7,7,0,0,1,7-7.21,6.93,6.93,0,0,1,6.89,7.05A.65.65,0,0,1,246.76,22.82Zm-6.17-6.11a5,5,0,0,0-5.07,4.69H245.6A5,5,0,0,0,240.59,16.71Z"/><path class="cls-2" d="M261.15,16.43l-5.41,12.4a11.5,11.5,0,0,1-6.45,6.39.93.93,0,0,1-.28.06.82.82,0,0,1-.19-1.61A9.3,9.3,0,0,0,254,28.52s-.22-.41-5.29-12.12a.75.75,0,0,1-.06-.25.88.88,0,0,1,.53-.85.68.68,0,0,1,.35-.06.82.82,0,0,1,.75.5l4.66,10.73,4.63-10.73a.88.88,0,0,1,.82-.5.92.92,0,0,1,.28.06.86.86,0,0,1,.54.79A.67.67,0,0,1,261.15,16.43Z"/><path class="cls-2" d="M286.11,10.07H274.65v7.21h6.64a.94.94,0,0,1,0,1.89h-6.64v9.22a1,1,0,0,1-2.08,0V9.19a1,1,0,0,1,1-1h12.5a.94.94,0,0,1,0,1.89Z"/><path class="cls-2" d="M291,11.58a1.13,1.13,0,1,1,0-2.27,1.13,1.13,0,0,1,0,2.27Zm0,17.82a1,1,0,0,1-1-.94V16.18a1,1,0,0,1,1-.94.9.9,0,0,1,.91.94V28.46A.9.9,0,0,1,291,29.4Z"/><path class="cls-2" d="M298.51,29.4a.93.93,0,0,1-1-.91V8.84a1,1,0,0,1,1-.94.9.9,0,0,1,.91.94V28.49A.88.88,0,0,1,298.51,29.4Z"/><path class="cls-2" d="M310.12,17.09h-2.8v11.4a.88.88,0,0,1-.91.91.93.93,0,0,1-1-.91V17.09h-2.49a.79.79,0,0,1,0-1.57h2.49V10.89a1,1,0,0,1,1-.94.9.9,0,0,1,.91.94v4.63h2.8a.79.79,0,1,1,0,1.57Z"/><path class="cls-2" d="M324.82,22.82H313.59a5.24,5.24,0,0,0,5.29,5.1,6,6,0,0,0,4.66-2.2.76.76,0,0,1,.6-.31.84.84,0,0,1,.5.19.78.78,0,0,1,.28.6.83.83,0,0,1-.19.5,7.59,7.59,0,0,1-5.92,2.83,7.14,7.14,0,0,1-7.18-7.21,7,7,0,0,1,7-7.21,6.93,6.93,0,0,1,6.89,7.05A.65.65,0,0,1,324.82,22.82Zm-6.17-6.11a5,5,0,0,0-5.07,4.69h10.07A5,5,0,0,0,318.65,16.71Z"/><path class="cls-2" d="M336.12,16.78c-2.77,0-5.32,1.92-5.32,4.82v6.86a1,1,0,0,1-.94.94.92.92,0,0,1-.91-.94V16.18a.9.9,0,0,1,.91-.94,1,1,0,0,1,.94.94v1.61a6,6,0,0,1,5.32-2.68.82.82,0,0,1,.82.85A.79.79,0,0,1,336.12,16.78Z"/><path class="cls-2" d="M343.9,29.53a9.31,9.31,0,0,1-5.45-1.79.76.76,0,0,1-.32-.6.75.75,0,0,1,1.17-.63A7.56,7.56,0,0,0,343.8,28c2,0,3.93-.66,3.93-2.33,0-1.29-1.32-1.92-4.63-3-2.49-.85-4.41-1.76-4.41-3.94S341,15.11,344,15.11a8.42,8.42,0,0,1,4.94,1.39.78.78,0,0,1,.38.66.83.83,0,0,1-.09.38.74.74,0,0,1-.66.38,1,1,0,0,1-.41-.09,7.57,7.57,0,0,0-4-1.13c-2.11,0-3.59.66-3.59,2s1.07,1.79,4.16,2.8,4.91,2,4.91,4.09C349.56,27.89,347.33,29.53,343.9,29.53Z"/><path class="cls-2" d="M162.36,0V34.2H161.1V0Z"/></g></g></svg>