<svg xmlns="http://www.w3.org/2000/svg" viewBox="0 0 556.91 76.1"><defs><style>.cls-1{fill:#32b4e4;}.cls-2{fill:#003764;}</style></defs><title>logoqc</title><g id="Capa_2" data-name="Capa 2"><g id="Layer_2" data-name="Layer 2"><path class="cls-1" d="M27.63.09A26.84,26.84,0,0,1,38.38,2.24,27.75,27.75,0,0,1,53,16.85,26.82,26.82,0,0,1,55.14,27.6V55.23H27.63a27,27,0,0,1-10.69-2.15,27.86,27.86,0,0,1-14.8-14.8A26.92,26.92,0,0,1,0,27.6,26.79,26.79,0,0,1,2.15,16.85a27.32,27.32,0,0,1,6-8.72,28.38,28.38,0,0,1,8.84-5.89A27,27,0,0,1,27.63.09ZM44.21,44.3V27.6a16.17,16.17,0,0,0-1.29-6.45,16.68,16.68,0,0,0-8.84-8.84A16.18,16.18,0,0,0,27.63,11,16.59,16.59,0,0,0,12.22,21.15a16.19,16.19,0,0,0-1.29,6.45,16.76,16.76,0,0,0,4.85,11.85A16.76,16.76,0,0,0,27.63,44.3Z"/><path class="cls-2" d="M88.42.34A26.81,26.81,0,0,1,99.16,2.49a28.52,28.52,0,0,1,8.78,5.89,27.35,27.35,0,0,1,6,8.72,26.83,26.83,0,0,1,2.15,10.74V76.1H105.12V55.48H88.42A27.24,27.24,0,0,1,69,47.37a28.29,28.29,0,0,1-5.89-8.84,26.93,26.93,0,0,1-2.15-10.69A26.79,26.79,0,0,1,63.06,17.1,27.56,27.56,0,0,1,77.74,2.49,27,27,0,0,1,88.42.34Zm16.7,44.21V27.84a16.22,16.22,0,0,0-1.29-6.45,16.8,16.8,0,0,0-3.56-5.28,16.76,16.76,0,0,0-11.85-4.85A16.17,16.17,0,0,0,82,12.56a16.69,16.69,0,0,0-8.84,8.84,16.22,16.22,0,0,0-1.29,6.45,16.65,16.65,0,0,0,1.29,6.51,16.47,16.47,0,0,0,3.56,5.34A16.65,16.65,0,0,0,82,43.26a16.24,16.24,0,0,0,6.45,1.29Z"/><path class="cls-2" d="M177.33.09V27.6a26.93,26.93,0,0,1-2.15,10.68,28,28,0,0,1-14.74,14.8,27.42,27.42,0,0,1-30.21-6,28.25,28.25,0,0,1-5.9-8.84,27,27,0,0,1-2.15-10.68V.09h10.93V27.6A16.59,16.59,0,0,0,143.25,43a16.16,16.16,0,0,0,6.45,1.29A16.6,16.6,0,0,0,156.21,43a16.36,16.36,0,0,0,8.9-8.9,16.62,16.62,0,0,0,1.29-6.51V.09Z"/><path class="cls-2" d="M210.49.09a26.84,26.84,0,0,1,10.74,2.15,27.72,27.72,0,0,1,14.61,14.61A26.83,26.83,0,0,1,238,27.6V55.23H210.49a26.93,26.93,0,0,1-10.68-2.15A27.85,27.85,0,0,1,185,38.28a26.92,26.92,0,0,1-2.15-10.68A26.79,26.79,0,0,1,185,16.85a27.29,27.29,0,0,1,6-8.72,28.34,28.34,0,0,1,8.84-5.89A27,27,0,0,1,210.49.09ZM227.06,44.3V27.6a16.25,16.25,0,0,0-1.29-6.45,16.69,16.69,0,0,0-8.84-8.84A16.18,16.18,0,0,0,210.49,11a16.6,16.6,0,0,0-15.41,10.13,16.2,16.2,0,0,0-1.29,6.45,16.75,16.75,0,0,0,4.85,11.85,16.76,16.76,0,0,0,11.85,4.85Z"/><path class="cls-2" d="M433,47H420.55a1.69,1.69,0,0,1-1.68-1.68V14.83a1.65,1.65,0,0,1,1.68-1.63h11.28c5.84,0,9.8,3.5,9.8,8.38A8.07,8.07,0,0,1,437,28.85a9.09,9.09,0,0,1,6.81,8.58C443.81,42.56,440.05,47,433,47Zm-.76-30.83H422.23V27.73h10.06c3.81,0,6-2.49,6-5.74C438.28,18.59,435.94,16.2,432.28,16.2Zm1.83,14.53H422.23V44h11.88c4,0,6.4-2.64,6.4-6.65A6.37,6.37,0,0,0,434.11,30.72Z"/><path class="cls-2" d="M467.53,36.82H449.4A8.46,8.46,0,0,0,457.93,45a9.63,9.63,0,0,0,7.52-3.56,1.23,1.23,0,0,1,1-.51,1.35,1.35,0,0,1,.81.3,1.25,1.25,0,0,1,.46,1,1.35,1.35,0,0,1-.3.81,12.26,12.26,0,0,1-9.55,4.57A11.52,11.52,0,0,1,446.25,36a11.31,11.31,0,0,1,11.33-11.63A11.18,11.18,0,0,1,468.7,35.75,1,1,0,0,1,467.53,36.82Zm-10-9.85a8.12,8.12,0,0,0-8.18,7.57h16.25A8.07,8.07,0,0,0,457.57,27Z"/><path class="cls-2" d="M485.76,27.07c-4.47,0-8.58,3.1-8.58,7.77V45.91a1.56,1.56,0,0,1-1.52,1.52,1.49,1.49,0,0,1-1.47-1.52V26.1a1.45,1.45,0,0,1,1.47-1.52,1.53,1.53,0,0,1,1.52,1.52v2.59a9.71,9.71,0,0,1,8.58-4.32,1.32,1.32,0,0,1,1.32,1.37A1.28,1.28,0,0,1,485.76,27.07Z"/><path class="cls-2" d="M509,47.38c-.1,0-.25.05-.36.05a1.25,1.25,0,0,1-1-.46L498,35.75l-3.25,2.59v7.57a1.52,1.52,0,0,1-1.47,1.52,1.56,1.56,0,0,1-1.52-1.52V14.27a1.53,1.53,0,0,1,1.52-1.52,1.48,1.48,0,0,1,1.47,1.52V34.79l12.49-9.9a1.38,1.38,0,0,1,.86-.3,1.31,1.31,0,0,1,1.12.51,1.42,1.42,0,0,1,.3.91,1.32,1.32,0,0,1-.56,1.07l-8.74,7,9.55,11.07a1.56,1.56,0,0,1,.3,1A1.3,1.3,0,0,1,509,47.38Z"/><path class="cls-2" d="M533.6,36.82H515.46A8.46,8.46,0,0,0,524,45a9.63,9.63,0,0,0,7.52-3.56,1.23,1.23,0,0,1,1-.51,1.36,1.36,0,0,1,.81.3,1.25,1.25,0,0,1,.46,1,1.35,1.35,0,0,1-.3.81,12.26,12.26,0,0,1-9.55,4.57A11.52,11.52,0,0,1,512.32,36a11.31,11.31,0,0,1,11.33-11.63,11.18,11.18,0,0,1,11.12,11.38A1,1,0,0,1,533.6,36.82Zm-10-9.85a8.13,8.13,0,0,0-8.18,7.57h16.25A8.07,8.07,0,0,0,523.64,27Z"/><path class="cls-2" d="M556.81,26.51l-8.74,20c-1.93,4.37-5.38,8.53-10.41,10.31a1.5,1.5,0,0,1-.46.1,1.32,1.32,0,0,1-.3-2.59A15,15,0,0,0,545.28,46s-.36-.66-8.53-19.56a1.21,1.21,0,0,1-.1-.41,1.42,1.42,0,0,1,.86-1.37,1.1,1.1,0,0,1,.56-.1,1.32,1.32,0,0,1,1.22.81l7.52,17.32,7.47-17.32a1.41,1.41,0,0,1,1.32-.81,1.49,1.49,0,0,1,.46.1,1.39,1.39,0,0,1,.86,1.27A1.09,1.09,0,0,1,556.81,26.51Z"/><path class="cls-2" d="M304,16.25H285.51V27.88h10.72a1.52,1.52,0,0,1,0,3H285.51V45.81a1.68,1.68,0,0,1-3.35,0v-31a1.65,1.65,0,0,1,1.68-1.63H304a1.52,1.52,0,0,1,0,3Z"/><path class="cls-2" d="M309.4,18.69a1.83,1.83,0,1,1,0-3.66,1.83,1.83,0,0,1,0,3.66Zm0,28.75a1.54,1.54,0,0,1-1.58-1.52V26.1a1.54,1.54,0,0,1,1.58-1.52,1.46,1.46,0,0,1,1.47,1.52V45.91A1.46,1.46,0,0,1,309.4,47.44Z"/><path class="cls-2" d="M320.31,47.44A1.5,1.5,0,0,1,318.73,46V14.27a1.54,1.54,0,0,1,1.58-1.52,1.46,1.46,0,0,1,1.47,1.52V46A1.41,1.41,0,0,1,320.31,47.44Z"/><path class="cls-2" d="M337.81,27.58h-4.52V46a1.41,1.41,0,0,1-1.47,1.47A1.5,1.5,0,0,1,330.25,46V27.58h-4a1.27,1.27,0,0,1,0-2.54h4V17.57A1.54,1.54,0,0,1,331.82,16a1.45,1.45,0,0,1,1.47,1.52V25h4.52a1.27,1.27,0,1,1,0,2.54Z"/><path class="cls-2" d="M377.45,36.82H359.32A8.46,8.46,0,0,0,367.85,45a9.63,9.63,0,0,0,7.52-3.56,1.23,1.23,0,0,1,1-.51,1.35,1.35,0,0,1,.81.3,1.25,1.25,0,0,1,.46,1,1.34,1.34,0,0,1-.3.81,12.25,12.25,0,0,1-9.55,4.57A11.52,11.52,0,0,1,356.17,36,11.31,11.31,0,0,1,367.5,24.38a11.18,11.18,0,0,1,11.12,11.38A1,1,0,0,1,377.45,36.82ZM367.5,27a8.12,8.12,0,0,0-8.18,7.57h16.25A8.07,8.07,0,0,0,367.5,27Z"/><path class="cls-2" d="M354,27.07c-4.47,0-8.58,3.1-8.58,7.77V45.91a1.56,1.56,0,0,1-1.52,1.52,1.49,1.49,0,0,1-1.47-1.52V26.1a1.45,1.45,0,0,1,1.47-1.52,1.53,1.53,0,0,1,1.52,1.52v2.59A9.71,9.71,0,0,1,354,24.38a1.32,1.32,0,0,1,1.32,1.37A1.28,1.28,0,0,1,354,27.07Z"/><path class="cls-2" d="M389.84,47.64a15,15,0,0,1-8.79-2.9,1.23,1.23,0,0,1-.51-1,1.21,1.21,0,0,1,1.88-1,12.2,12.2,0,0,0,7.26,2.39c3.15,0,6.35-1.07,6.35-3.76,0-2.08-2.13-3.1-7.47-4.88-4-1.37-7.11-2.84-7.11-6.35s3.76-5.79,8.48-5.79a13.59,13.59,0,0,1,8,2.24,1.25,1.25,0,0,1,.61,1.07,1.34,1.34,0,0,1-.15.61,1.19,1.19,0,0,1-1.07.61,1.56,1.56,0,0,1-.66-.15,12.22,12.22,0,0,0-6.5-1.83c-3.4,0-5.79,1.07-5.79,3.3s1.73,2.9,6.7,4.52S399,38,399,41.34C399,45,395.38,47.64,389.84,47.64Z"/><path class="cls-2" d="M262,0V55.18h-2V0Z"/></g></g></svg>