<svg xmlns="http://www.w3.org/2000/svg" viewBox="0 0 30.38 19.9"><defs><style>.cls-1{fill:#32b4e4;}</style></defs><title>ship</title><g id="Capa_2" data-name="Capa 2"><g id="Layer_2" data-name="Layer 2"><path class="cls-1" d="M29.59,9.91,28,9.11a3.78,3.78,0,0,1-1.27-1.16L24.79,4.79a2.11,2.11,0,0,0-1.66-.88H19.41l.46-2.64a1,1,0,0,0-1-1.27H6.41A1.58,1.58,0,0,0,4.92,1.27L4.28,4.92H16.21L16,6.18H0l.61,2.5H15.15L14.92,10H.6l.62,2.52H3l-.65,3.7a1,1,0,0,0,1,1.24h2.5A2.79,2.79,0,0,0,8.71,19.9a4.31,4.31,0,0,0,3.75-2.49h8.44a2.79,2.79,0,0,0,2.88,2.49,4.31,4.31,0,0,0,3.75-2.49h.55a1.54,1.54,0,0,0,1.45-1.24l.81-4.62A1.6,1.6,0,0,0,29.59,9.91ZM11,16.45a2.13,2.13,0,0,1-2,1.72A1.4,1.4,0,0,1,7.6,16.45a2.13,2.13,0,0,1,2-1.72A1.4,1.4,0,0,1,11,16.45Zm8.25-6.88a.66.66,0,0,1-.68-.81h0L19,6.37a1,1,0,0,1,1-.82h2.13a1.55,1.55,0,0,1,1.21.65l1.58,2.64c.21.36,0,.65-.43.66Zm6.83,6.88a2.13,2.13,0,0,1-2,1.72,1.4,1.4,0,0,1-1.42-1.72,2.13,2.13,0,0,1,2-1.72A1.4,1.4,0,0,1,26.11,16.45Z"/></g></g></svg>