<svg id="Layer_2" data-name="Layer 2" xmlns="http://www.w3.org/2000/svg" xmlns:xlink="http://www.w3.org/1999/xlink" viewBox="0 0 354 39"><defs><style>.cls-1,.cls-17{fill:none;}.cls-2{fill:#fff;}.cls-3{fill:#064672;}.cls-4{fill:#fb9b27;}.cls-5{fill:#b11f14;}.cls-6{fill:#fa7d23;}.cls-7{fill:#e53119;}.cls-8{fill:#001e7a;}.cls-9{fill:#0c6196;}.cls-10{fill:#157b9d;}.cls-11{fill:url(#linear-gradient);}.cls-12{clip-path:url(#clip-path);}.cls-13{fill:url(#linear-gradient-2);}.cls-14{clip-path:url(#clip-path-2);}.cls-15{fill:url(#radial-gradient);}.cls-16{fill:#131313;}.cls-17{stroke:#d0d7d7;stroke-miterlimit:10;}</style><linearGradient id="linear-gradient" x1="249" y1="38.5" x2="249" y2="0.5" gradientUnits="userSpaceOnUse"><stop offset="0" stop-color="#3579ac"/><stop offset="0.5" stop-color="#2398cf"/><stop offset="1" stop-color="#91c7e5"/></linearGradient><clipPath id="clip-path"><path class="cls-1" d="M155.84,37.93h53.08V13.59c-6,7.67-22.13,22.55-53.08,24.34"/></clipPath><linearGradient id="linear-gradient-2" x1="-3089.81" y1="-4392.98" x2="-3089.31" y2="-4392.98" gradientTransform="matrix(0, -32.64, -32.64, 0, -143185.06, -100798.76)" gradientUnits="userSpaceOnUse"><stop offset="0" stop-color="#e96721"/><stop offset="1" stop-color="#dc7f20"/></linearGradient><clipPath id="clip-path-2"><path class="cls-1" d="M174.36,12.8a4,4,0,1,0,4-4,4,4,0,0,0-4,4"/></clipPath><radialGradient id="radial-gradient" cx="-2716.61" cy="-4780.46" r="0.5" gradientTransform="matrix(9.62, 0, 0, -9.62, 26318.94, -45987.21)" gradientUnits="userSpaceOnUse"><stop offset="0" stop-color="#fff"/><stop offset="1" stop-color="#e96721"/></radialGradient></defs><title>cards</title><rect class="cls-2" x="0.5" y="0.5" width="65" height="38"/><polygon class="cls-3" points="25.35 25.65 27.93 10.41 32.11 10.41 29.53 25.65 25.35 25.65"/><path class="cls-3" d="M44.4,10.56a10.9,10.9,0,0,0-3.75-.64c-4.13,0-7,2.07-7.06,5,0,2.19,2.08,3.41,3.66,4.14s2.17,1.22,2.17,1.89c0,1-1.3,1.49-2.5,1.49a8.79,8.79,0,0,1-3.93-.8l-.54-.24-.59,3.41a13.31,13.31,0,0,0,4.66.81c4.39,0,7.24-2,7.28-5.21,0-1.73-1.1-3.05-3.51-4.14-1.46-.71-2.35-1.18-2.35-1.89s.76-1.31,2.39-1.31a7.7,7.7,0,0,1,3.13.58l.38.18Z"/><path class="cls-3" d="M51.53,10.41a2.07,2.07,0,0,0-2.16,1.3l-6.2,13.94H47.6l.86-2.34h5.29l.49,2.34h3.93L54.72,10.41Zm-1.9,9.86C50,19.39,51.29,16,51.29,16s.34-.88.55-1.46l.28,1.31,1,4.4Z"/><path class="cls-3" d="M17.73,20.86l-.37-2.09a11.89,11.89,0,0,0-5.78-6.39l3.69,13.27h4.42l6.64-15.24H21.91Z"/><path class="cls-4" d="M7,10.41v.25c5.24,1.26,8.88,4.45,10.32,8.11l-1.52-7.06a1.8,1.8,0,0,0-1.93-1.3Z"/><rect class="cls-2" x="72.5" y="0.5" width="65" height="38"/><path class="cls-5" d="M99,5a12.41,12.41,0,1,0,8.44,21.59h0a13.09,13.09,0,0,0,1.26-1.33h-2.54a12.12,12.12,0,0,1-.93-1.28h4.38a12.68,12.68,0,0,0,.72-1.33h-5.83a11.5,11.5,0,0,1-.51-1.31h6.87a12.39,12.39,0,0,0,.64-3.93,12.62,12.62,0,0,0-.29-2.66h-7.59q.15-.66.36-1.3h6.87a12.84,12.84,0,0,0-.53-1.33h-5.81a11.74,11.74,0,0,1,.71-1.3h4.38a11.76,11.76,0,0,0-1-1.33h-2.44a11.44,11.44,0,0,1,1.25-1.25A12.38,12.38,0,0,0,99.11,5Z"/><path class="cls-6" d="M127.61,17.46a12.41,12.41,0,0,1-24.83,0h0a12.41,12.41,0,0,1,24.83,0Z"/><path class="cls-4" d="M127.61,17.91a12.25,12.25,0,1,1-24.49,0h0a12.25,12.25,0,1,1,24.49,0Z"/><path class="cls-7" d="M98.86,5.5a12.41,12.41,0,0,0,.08,24.82,12.12,12.12,0,0,0,8.24-3.23h0A9.52,9.52,0,0,0,108.3,26H106a14.47,14.47,0,0,1-.92-1.38h4.14a14.81,14.81,0,0,0,.92-1.38h-6a12.71,12.71,0,0,1-.46-1.38h6.9a12.34,12.34,0,0,0,.59-3.91,11.59,11.59,0,0,0-.13-2.53h-7.82c.1-.44.32-.95.46-1.38h6.9a14,14,0,0,0-.46-1.38h-6a15,15,0,0,1,.92-1.38h4.14a10.32,10.32,0,0,0-.86-1.26H106a11.47,11.47,0,0,1,1.23-1.25A12.12,12.12,0,0,0,98.94,5.5Z"/><path class="cls-8" d="M103.82,21.66l.16-1.08c-.09,0-.22,0-.33,0-.44,0-.48-.24-.46-.41l.36-2.21h.67l.16-1.2h-.63l.13-.74h-1.26s-.74,4.2-.74,4.7c0,.75.42,1.09,1,1.08a3.24,3.24,0,0,0,.95-.17"/><path class="cls-8" d="M104.16,19.59a2,2,0,0,0,2.17,2.23,3.23,3.23,0,0,0,1.34-.21l.22-1.23a3.93,3.93,0,0,1-1.34.31c-1.35,0-1.12-1-1.12-1H108a9.25,9.25,0,0,0,.17-1.16,1.7,1.7,0,0,0-1.8-1.87c-1.26,0-2.2,1.38-2.2,2.94m2.21-1.8c.71,0,.58.81.58.87h-1.4c0-.08.13-.87.82-.87"/><path class="cls-8" d="M96.39,16.67a4.3,4.3,0,0,0-1.52.28l-.18,1.1a3.92,3.92,0,0,1,1.37-.22c.47,0,.82,0,.82.44a.78.78,0,0,1,0,.32l-.54,0c-1.09,0-2.23.47-2.23,1.89a1.2,1.2,0,0,0,1.21,1.37,1.65,1.65,0,0,0,1.29-.59l0,.49h1.11l.49-3.51a1.49,1.49,0,0,0-1.73-1.54m.27,2.87c0,.21-.13,1.22-.89,1.22a.47.47,0,0,1-.49-.49c0-.34.19-.76,1.11-.76a.63.63,0,0,1,.27,0"/><path class="cls-8" d="M99.61,21.82c.28,0,1.9.07,1.9-1.62S100,18.93,100,18.29c0-.32.24-.42.69-.42.18,0,.86.06.86.06l.16-1.12a5.6,5.6,0,0,0-1.16-.1c-.93,0-1.87.38-1.87,1.67,0,1.46,1.57,1.32,1.57,1.93,0,.41-.44.44-.78.44a4.09,4.09,0,0,1-1.12-.19l-.17,1.12a4,4,0,0,0,1.42.16"/><polygon class="cls-8" points="89.29 21.82 90.06 17.25 90.17 21.82 91.03 21.82 92.65 17.25 91.94 21.82 93.23 21.82 94.22 15.75 92.23 15.75 90.98 19.48 90.92 15.75 89.08 15.75 88.07 21.82 89.29 21.82"/><path class="cls-8" d="M109.6,21.82c.37-2.11.43-3.83,1.31-3.51a5,5,0,0,1,.47-1.48h-.24c-.56,0-1,.78-1,.78l.11-.72h-1.17l-.79,4.95Z"/><path class="cls-8" d="M114.43,21.65l.23-1.39a3,3,0,0,1-1,.31,1.26,1.26,0,0,1-1.26-1.43c0-1.51.77-2.34,1.63-2.34a2.21,2.21,0,0,1,1.15.37l.21-1.35a4.46,4.46,0,0,0-1.42-.31c-1.46,0-2.87,1.28-2.87,3.68,0,1.59.76,2.64,2.26,2.64a5.71,5.71,0,0,0,1.1-.18"/><path class="cls-8" d="M125.24,15.68,125,17.39a1.66,1.66,0,0,0-1.21-.66c-1.16,0-2.12,1.41-2.12,3,0,1,.51,2.07,1.56,2.07a1.58,1.58,0,0,0,1.18-.54l-.06.46h1.23l1-6.07ZM124.65,19c0,.68-.33,1.57-1,1.57-.46,0-.67-.39-.67-1,0-1,.44-1.64,1-1.64s.69.31.69,1.06"/><path class="cls-8" d="M117.08,16.67a4.3,4.3,0,0,0-1.52.28l-.19,1.1a3.94,3.94,0,0,1,1.37-.22c.47,0,.81,0,.81.44a.85.85,0,0,1,0,.32l-.54,0c-1.09,0-2.23.47-2.23,1.89A1.2,1.2,0,0,0,116,21.82a1.62,1.62,0,0,0,1.29-.59l0,.49h1.11l.5-3.51a1.49,1.49,0,0,0-1.73-1.54m.27,2.87c0,.21-.13,1.22-.89,1.22a.47.47,0,0,1-.49-.49c0-.34.19-.76,1.11-.76a.66.66,0,0,1,.27,0"/><path class="cls-8" d="M120.17,21.82c.37-2.11.43-3.83,1.31-3.51a4.94,4.94,0,0,1,.47-1.48h-.24c-.57,0-1,.78-1,.78l.11-.72h-1.17l-.78,4.95Z"/><path class="cls-2" d="M103.82,21.19l.16-1.12c-.09,0-.22,0-.33,0-.44,0-.48-.25-.46-.42l.36-2.29h.67l.16-1.24h-.63l.13-.77h-1.26s-.74,4.34-.74,4.86c0,.78.42,1.13,1,1.12a3.25,3.25,0,0,0,.95-.17"/><path class="cls-2" d="M104.16,19.13a2,2,0,0,0,2.17,2.23,3.21,3.21,0,0,0,1.34-.21l.22-1.23a3.91,3.91,0,0,1-1.34.31c-1.35,0-1.12-1-1.12-1H108a9.31,9.31,0,0,0,.17-1.16,1.7,1.7,0,0,0-1.8-1.87c-1.26,0-2.2,1.38-2.2,2.94m2.21-1.8c.71,0,.58.81.58.87h-1.4c0-.08.13-.87.82-.87"/><path class="cls-2" d="M96.39,16.21a4.32,4.32,0,0,0-1.52.28l-.18,1.1a3.89,3.89,0,0,1,1.37-.23c.47,0,.82.05.82.44a.79.79,0,0,1,0,.32l-.54,0C95.19,18.1,94,18.57,94,20a1.2,1.2,0,0,0,1.21,1.38,1.65,1.65,0,0,0,1.29-.59l0,.49h1.11l.49-3.51a1.49,1.49,0,0,0-1.73-1.54m.27,2.86c0,.21-.13,1.22-.89,1.22a.46.46,0,0,1-.49-.48c0-.35.19-.77,1.11-.77a.63.63,0,0,1,.27,0"/><path class="cls-2" d="M99.61,21.36c.28,0,1.9.07,1.9-1.62S100,18.47,100,17.83c0-.32.24-.42.69-.42.18,0,.86.06.86.06l.16-1.13a5.7,5.7,0,0,0-1.16-.1c-.93,0-1.87.38-1.87,1.67,0,1.46,1.57,1.32,1.57,1.93,0,.41-.44.44-.78.44a4.09,4.09,0,0,1-1.12-.19l-.17,1.12a4,4,0,0,0,1.42.16"/><polygon class="cls-2" points="89.29 21.36 90.06 16.86 90.17 21.36 91.03 21.36 92.65 16.86 91.94 21.36 93.23 21.36 94.22 15.39 92.23 15.39 90.98 19.05 90.92 15.39 89.08 15.39 88.07 21.36 89.29 21.36"/><path class="cls-2" d="M109.6,21.37c.37-2.13.43-3.87,1.31-3.55a5.11,5.11,0,0,1,.47-1.49,1.3,1.3,0,0,0-.24,0c-.56,0-1,.79-1,.79l.11-.73h-1.17l-.79,5Z"/><path class="cls-2" d="M114.43,21.19l.23-1.39a3,3,0,0,1-1,.31c-.89,0-1.26-.69-1.26-1.44,0-1.51.77-2.34,1.63-2.34a2.21,2.21,0,0,1,1.15.36l.21-1.35a4.53,4.53,0,0,0-1.42-.31c-1.46,0-2.87,1.27-2.87,3.67,0,1.59.76,2.64,2.26,2.64a5.65,5.65,0,0,0,1.1-.18"/><path class="cls-2" d="M125.24,15.39,125,17.05a1.67,1.67,0,0,0-1.21-.65c-1.16,0-2.12,1.37-2.12,2.95,0,1,.51,2,1.56,2a1.59,1.59,0,0,0,1.18-.52l-.06.45h1.23l1-5.9Zm-.59,3.24c0,.65-.33,1.53-1,1.53-.46,0-.67-.38-.67-1,0-1,.44-1.6,1-1.6s.69.31.69,1"/><path class="cls-2" d="M117.08,16.21a4.32,4.32,0,0,0-1.52.28l-.19,1.1a3.9,3.9,0,0,1,1.37-.23c.47,0,.81.05.81.44a.86.86,0,0,1,0,.32l-.54,0c-1.09,0-2.23.47-2.23,1.89A1.2,1.2,0,0,0,116,21.37a1.62,1.62,0,0,0,1.29-.59l0,.49h1.11l.5-3.51a1.49,1.49,0,0,0-1.73-1.54m.27,2.86c0,.21-.13,1.22-.89,1.22a.46.46,0,0,1-.49-.48c0-.35.19-.77,1.11-.77a.66.66,0,0,1,.27,0"/><path class="cls-2" d="M120.17,21.37c.37-2.13.43-3.87,1.31-3.55a5,5,0,0,1,.47-1.49,1.41,1.41,0,0,0-.24,0c-.57,0-1,.79-1,.79l.11-.73h-1.17l-.78,5Z"/><rect class="cls-2" x="288.5" y="0.5" width="65" height="38"/><path class="cls-9" d="M304.64,17.33a3.23,3.23,0,0,1-1.87.46h-.95l.76-3h1a2.39,2.39,0,0,1,1.29.32.94.94,0,0,1,.43.84,1.53,1.53,0,0,1-.67,1.33m3.19-2.83a2.16,2.16,0,0,0-.82-.83,3.77,3.77,0,0,0-1.28-.5A10.39,10.39,0,0,0,304,13h-3.66L298,22.8h2.65l.69-3.16h1a7.22,7.22,0,0,0,4.22-1.06,3.28,3.28,0,0,0,1.51-2.8,2.64,2.64,0,0,0-.28-1.28"/><path class="cls-9" d="M312.17,20.67a3.88,3.88,0,0,1-.78.41,2.15,2.15,0,0,1-.78.16,1.78,1.78,0,0,1-.84-.15.56.56,0,0,1-.3-.53,1.06,1.06,0,0,1,.22-.7,1.37,1.37,0,0,1,.64-.41,5.32,5.32,0,0,1,1-.21l1.23-.12-.38,1.55m-.4,1.91h2.41l1.19-5a2.53,2.53,0,0,0,.06-.37,3.3,3.3,0,0,0,0-.34,1.51,1.51,0,0,0-.85-1.41A5.94,5.94,0,0,0,312,15a12.23,12.23,0,0,0-1.8.13c-.6.09-1,.17-1.34.24l-.36,1.76s.84-.2,1.33-.33a5.08,5.08,0,0,1,1.34-.2,3.75,3.75,0,0,1,1.35.18.65.65,0,0,1,.45.64,1.05,1.05,0,0,1,0,.2,1.3,1.3,0,0,0,0,.13q-1.28.07-2.37.22a7.4,7.4,0,0,0-1.89.5,2.9,2.9,0,0,0-1.28,1,2.49,2.49,0,0,0-.43,1.48,1.67,1.67,0,0,0,.61,1.34,2.32,2.32,0,0,0,1.57.52,4,4,0,0,0,.93-.08,5.36,5.36,0,0,0,.72-.23,3.7,3.7,0,0,0,.62-.32l.56-.36Z"/><polyline class="cls-9" points="315.25 25.59 317.35 22.71 316.02 15.36 318.6 15.36 319.31 20.27 322.34 15.36 324.92 15.36 318.22 25.59"/><path class="cls-10" d="M330.28,17.79a3.22,3.22,0,0,1-1.86.47h-.95l.69-3h1.14a2.14,2.14,0,0,1,1.22.32.93.93,0,0,1,.43.84,1.51,1.51,0,0,1-.67,1.33m3.2-2.83a2.18,2.18,0,0,0-.81-.83,3.76,3.76,0,0,0-1.29-.45,9,9,0,0,0-1.7-.18H326l-2.4,9.77h2.65l.76-3.21h1.26a6.37,6.37,0,0,0,4-1,3.29,3.29,0,0,0,1.51-2.8,2.63,2.63,0,0,0-.28-1.28"/><path class="cls-10" d="M338.2,20.67a3.94,3.94,0,0,1-.78.41,2.14,2.14,0,0,1-.78.16,1.78,1.78,0,0,1-.85-.15.55.55,0,0,1-.29-.53,1,1,0,0,1,.22-.7,1.37,1.37,0,0,1,.64-.41,5.32,5.32,0,0,1,1-.21l1.23-.12-.38,1.55m-.46,1.91h2.41l1.25-5a2.8,2.8,0,0,0,.07-.37,3.16,3.16,0,0,0,0-.34,1.5,1.5,0,0,0-.85-1.41A5.92,5.92,0,0,0,338,15a12.2,12.2,0,0,0-1.8.13c-.61.09-1.05.17-1.34.24l-.36,1.76h.23c.24-.09.61-.2,1.1-.33a5.07,5.07,0,0,1,1.34-.2,3.77,3.77,0,0,1,1.35.18.65.65,0,0,1,.45.64.81.81,0,0,1,0,.2c0,.06,0,.11,0,.13q-1.28.07-2.37.22a7.43,7.43,0,0,0-1.89.5,2.89,2.89,0,0,0-1.28,1,2.51,2.51,0,0,0-.43,1.48,1.67,1.67,0,0,0,.61,1.34,2.31,2.31,0,0,0,1.56.52,4.09,4.09,0,0,0,.94-.08,5.23,5.23,0,0,0,.71-.23,3.54,3.54,0,0,0,.61-.32l.57-.36Z"/><polygon class="cls-10" points="343.85 22.8 341.3 22.8 343.85 12.57 346.27 12.57 343.85 22.8"/><rect class="cls-11" x="216.5" y="0.5" width="65" height="38" rx="4.79" ry="4.79"/><path class="cls-2" d="M225.31,14.58l-1.14-2.88L223,14.58m27.48-1.15a1.47,1.47,0,0,1-.83.15h-2V12h2.05a1.74,1.74,0,0,1,.8.13.67.67,0,0,1,.35.63.75.75,0,0,1-.35.69M265,14.58l-1.15-2.88-1.15,2.88Zm-27,3.11h-1.71V12l-2.43,5.65h-1.46L230,12v5.65h-3.4l-.64-1.61h-3.48l-.65,1.61H220l3-7.21h2.48l2.84,6.83V10.48H231l2.18,4.89,2-4.89H238Zm6.83,0h-5.58V10.48h5.58V12h-3.91v1.3h3.81v1.47h-3.81V16.2h3.91Zm7.87-5.27a2,2,0,0,1-1.18,1.92,2,2,0,0,1,.83.6,2.16,2.16,0,0,1,.27,1.33v1.41h-1.68v-.91a2.22,2.22,0,0,0-.27-1.41c-.24-.25-.61-.31-1.21-.31h-1.79v2.62H246V10.48h3.84a3.82,3.82,0,0,1,2,.35,1.69,1.69,0,0,1,.84,1.59m2.67,5.27h-1.7V10.48h1.7Zm19.79,0h-2.37l-3.16-5.41v5.41h-3.4l-.65-1.61h-3.47l-.63,1.61h-2a3.44,3.44,0,0,1-2.42-.8,3.69,3.69,0,0,1-.89-2.75,3.92,3.92,0,0,1,.9-2.82,3.35,3.35,0,0,1,2.54-.85h1.62V12h-1.59a1.55,1.55,0,0,0-1.28.43,2.43,2.43,0,0,0-.48,1.63,2.57,2.57,0,0,0,.47,1.7,1.59,1.59,0,0,0,1.16.37h.75l2.35-5.67h2.5L268,17.3V10.48h2.54l2.94,5v-5h1.71ZM220,19.11h2.85l.64-1.61h1.44l.65,1.61h5.62V17.88l.5,1.24h2.92l.5-1.25v1.24h14V16.48h.27c.19,0,.24,0,.24.34v2.29h7.22v-.61a5.57,5.57,0,0,0,2.68.61h3l.65-1.61h1.44l.64,1.61h5.85V17.58l.89,1.53h4.69v-10H272v1.19l-.65-1.19h-4.77v1.19L266,9.06h-6.43a5.62,5.62,0,0,0-2.79.58V9.06h-4.44v.58a2.67,2.67,0,0,0-1.88-.58H234.21l-1.09,2.59L232,9.06H226.9v1.19l-.56-1.19H222l-2,4.78-2.32,5.27Z"/><path class="cls-2" d="M279.83,25.5V20.89h-4.18a3.39,3.39,0,0,0-2.09.59v-.59H269a3.09,3.09,0,0,0-2,.59v-.59h-8.17v.59a4.22,4.22,0,0,0-2.25-.59h-5.4v.59a3.72,3.72,0,0,0-2.35-.59h-6l-1.38,1.54-1.29-1.54h-9v10h8.84l1.42-1.56,1.34,1.56h5.46V28.58h.53a5.65,5.65,0,0,0,2.33-.36v2.71h4.49V28.32h.21c.28,0,.3,0,.3.29v2.32h13.66A3.79,3.79,0,0,0,272,30.3v.64h4.33a5.73,5.73,0,0,0,2.46-.46h0a3.67,3.67,0,0,0,1.09-5m-31.08,1.61h-2.08v2.42h-3.25l-2.06-2.38-2.14,2.38H232.6v-7.2h6.73l2.05,2.36,2.13-2.36h5.34c1.32,0,2.82.38,2.82,2.37s-1.45,2.41-2.92,2.41m10.06-.33a2.14,2.14,0,0,1,.28,1.32v1.43h-1.68v-.91a2.18,2.18,0,0,0-.27-1.41c-.25-.26-.62-.32-1.23-.32h-1.79v2.63h-1.68v-7.2h3.86a4,4,0,0,1,2,.34,1.68,1.68,0,0,1,.86,1.6A2,2,0,0,1,258,26.17a1.86,1.86,0,0,1,.82.61m6.87-3h-3.91v1.31h3.82v1.47h-3.82V28h3.91v1.5h-5.57v-7.2h5.57Zm4.26,5.71h-3.25V28h3.24a1,1,0,0,0,.68-.18.66.66,0,0,0,0-.94.89.89,0,0,0-.6-.16c-1.56-.06-3.52,0-3.52-2.23a2.11,2.11,0,0,1,2.4-2.14h3.35v1.54h-3.06a1.1,1.1,0,0,0-.67.13.54.54,0,0,0-.25.51.54.54,0,0,0,.37.53,1.76,1.76,0,0,0,.65.09l.9,0a2.65,2.65,0,0,1,1.91.58,2.06,2.06,0,0,1,.5,1.53c0,1.54-.94,2.27-2.63,2.27m8.6-.7a2.81,2.81,0,0,1-2.08.7h-3.23V28h3.22a.92.92,0,0,0,.68-.18.62.62,0,0,0,.2-.47.61.61,0,0,0-.2-.48.86.86,0,0,0-.59-.16c-1.57-.06-3.53,0-3.53-2.23a2.11,2.11,0,0,1,2.4-2.14h3.26v1.54h-3A1.12,1.12,0,0,0,275,24a.56.56,0,0,0-.25.51.54.54,0,0,0,.37.53,1.81,1.81,0,0,0,.65.09l.9,0a2.6,2.6,0,0,1,1.9.58,1.23,1.23,0,0,1,.16.18l-.06-.07a2.4,2.4,0,0,1-.14,3m-40.09-5,1.82,2.1L238.38,28h-4.11V26.59h3.67V25.12h-3.67V23.81Zm4,2.13L245,23.09v5.78Zm7.44-1.24c0,.63-.4,1-1,1h-2.16V23.81h2.18c.6,0,1,.25,1,.88m7.46-.11a.79.79,0,0,1-.34.69,1.57,1.57,0,0,1-.83.15h-2V23.81h2.06a1.63,1.63,0,0,1,.79.13.69.69,0,0,1,.34.65"/><rect class="cls-2" x="144.5" y="0.5" width="65" height="38"/><g class="cls-12"><path class="cls-13" d="M155.84,37.94V13.59h53.08V36.13a1.81,1.81,0,0,1-1.81,1.81Z"/></g><g class="cls-14"><rect class="cls-15" x="174.36" y="8.81" width="7.99" height="7.99"/></g><path class="cls-16" d="M156.37,14.8a2.78,2.78,0,0,1-2.06.64h-.4V10.16h.4a2.56,2.56,0,0,1,2.89,2.63,2.77,2.77,0,0,1-.83,2m-1.76-6h-2.22v8h2.21a3.94,3.94,0,0,0,2.75-.92,4.06,4.06,0,0,0,1.4-3.07,3.89,3.89,0,0,0-4.14-4"/><rect class="cls-16" x="159.38" y="8.81" width="1.5" height="7.99"/><path class="cls-16" d="M164.74,11.88c-.9-.33-1.17-.55-1.17-1s.47-.85,1.12-.85a1.58,1.58,0,0,1,1.22.62l.79-1a3.4,3.4,0,0,0-2.27-.85A2.26,2.26,0,0,0,162,11c0,1.06.49,1.6,1.9,2.11a5.78,5.78,0,0,1,1,.44.92.92,0,0,1,.45.79,1.1,1.1,0,0,1-1.17,1.08,1.78,1.78,0,0,1-1.64-1l-1,.93a3,3,0,0,0,2.68,1.46A2.48,2.48,0,0,0,167,14.27c0-1.22-.51-1.77-2.22-2.39"/><path class="cls-16" d="M167.87,12.81a4,4,0,0,0,4.08,4,4.17,4.17,0,0,0,1.89-.45V14.59a2.42,2.42,0,0,1-1.82.84,2.51,2.51,0,0,1-2.6-2.64A2.52,2.52,0,0,1,173.84,11V9.28A3.9,3.9,0,0,0,172,8.81a4,4,0,0,0-4.11,4"/><polygon class="cls-16" points="186.05 14.04 183.99 8.81 182.35 8.81 185.63 16.8 186.44 16.8 189.77 8.81 188.14 8.81 186.05 14.04"/><polygon class="cls-16" points="190.34 16.8 194.83 16.8 194.83 15.44 191.92 15.44 191.92 13.28 194.72 13.28 194.72 11.93 191.92 11.93 191.92 10.16 194.83 10.16 194.83 8.81 190.34 8.81 190.34 16.8"/><path class="cls-16" d="M197.77,12.48h-.44V10.06h.46c.94,0,1.45.41,1.45,1.19s-.51,1.23-1.47,1.23m3-1.32c0-1.5-1-2.36-2.73-2.36h-2.24v8h1.51V13.59h.2l2.08,3.21h1.85L199,13.43a2.11,2.11,0,0,0,1.76-2.27"/><polygon class="cls-16" points="163.88 24.07 163.88 20.29 166.77 22.99 166.77 20.53 167.37 20.53 167.37 24.28 164.47 21.59 164.47 24.07 163.88 24.07"/><polygon class="cls-16" points="170.87 20.86 169.05 20.86 169.05 21.82 170.81 21.82 170.81 22.38 169.05 22.38 169.05 23.72 170.87 23.72 170.87 24.28 168.37 24.28 168.37 20.29 170.87 20.29 170.87 20.86"/><polygon class="cls-16" points="172.94 20.86 172.94 24.28 172.33 24.28 172.33 20.86 171.39 20.86 171.39 20.29 173.88 20.29 173.88 20.86 172.94 20.86"/><polygon class="cls-16" points="174.5 20.46 175.53 22.86 176.6 20.29 177.62 22.86 178.71 20.46 179.35 20.46 177.6 24.28 176.58 21.74 175.53 24.28 173.86 20.46 174.5 20.46"/><path class="cls-16" d="M179.35,22.21a2,2,0,0,1,.62-1.44,2,2,0,0,1,1.47-.6,2.08,2.08,0,0,1,2.07,2.06,2,2,0,0,1-.61,1.45,2.1,2.1,0,0,1-2.87.07,2,2,0,0,1-.68-1.54m.61,0a1.47,1.47,0,0,0,2.51,1.08,1.53,1.53,0,0,0,0-2.13,1.4,1.4,0,0,0-1-.43A1.46,1.46,0,0,0,180,22.21"/><path class="cls-16" d="M185.69,22.58l1.23,1.7h-.73l-1.14-1.63h-.11v1.63h-.6v-4h.7a1.74,1.74,0,0,1,1.14.3,1.1,1.1,0,0,1,.38.87,1.14,1.14,0,0,1-.24.73,1.08,1.08,0,0,1-.64.39m-.74-.46h.19c.57,0,.85-.22.85-.65s-.28-.61-.83-.61h-.21Z"/><polygon class="cls-16" points="187.94 21.88 189.49 20.29 190.29 20.29 188.49 22.1 190.3 24.28 189.5 24.28 188.06 22.51 187.94 22.63 187.94 24.28 187.34 24.28 187.34 20.29 187.94 20.29 187.94 21.88"/><rect class="cls-17" x="72.5" y="0.5" width="65" height="38" rx="3.94" ry="3.94"/><rect class="cls-17" x="0.5" y="0.5" width="65" height="38" rx="3.94" ry="3.94"/><rect class="cls-17" x="144.5" y="0.5" width="65" height="38" rx="3.94" ry="3.94"/><rect class="cls-17" x="216.5" y="0.5" width="65" height="38" rx="3.94" ry="3.94"/><rect class="cls-17" x="288.5" y="0.5" width="65" height="38" rx="3.94" ry="3.94"/></svg>