<svg xmlns="http://www.w3.org/2000/svg" viewBox="0 0 51.26 61.88"><defs><style>.cls-1{fill:#14b4e4;}</style></defs><title>reason4</title><g id="Capa_2" data-name="Capa 2"><g id="Layer_2" data-name="Layer 2"><path class="cls-1" d="M25.68,13l5.63-.18,9.2,9.2A20.29,20.29,0,0,1,45.1,28.9a21.37,21.37,0,0,1,0,16.1,20.25,20.25,0,0,1-4.59,6.88,20.1,20.1,0,0,1-6.88,4.62A20.67,20.67,0,0,1,25.88,58h-.17a21.79,21.79,0,0,1-8.07-1.62,20.31,20.31,0,0,1-6.89-4.59A20.16,20.16,0,0,1,6.13,44.9,21.25,21.25,0,0,1,6.12,29a20.14,20.14,0,0,1,4.62-6.89l8.42-8.42,6.51-.7m0-13L7.51,18.16a24.93,24.93,0,0,0-5.65,8.48,25.8,25.8,0,0,0,0,19.21,25,25,0,0,0,5.65,8.47,25.09,25.09,0,0,0,8.44,5.61,26.37,26.37,0,0,0,9.69,1.94h.21a25.4,25.4,0,0,0,9.44-1.82A25.82,25.82,0,0,0,49.36,46a25.9,25.9,0,0,0,0-19.45,25.07,25.07,0,0,0-5.61-8.44L25.67,0Z"/><path class="cls-1" d="M25.87,11A25.34,25.34,0,1,0,51.22,36.33,25.41,25.41,0,0,0,25.87,11ZM42.34,27.78c1.27,0,2.23,1,3.49,1-1,1.27-5.07,1.27-6.34-.32a7.64,7.64,0,0,1,2.85-.63ZM3.71,36.33A20,20,0,0,1,4,32.22c.32,0,.63.32,1,.32a1.1,1.1,0,0,1,.31.64,1.7,1.7,0,0,0,1.6,1.58c2.52.31,3.48,2.54,5.69,3.17.63.31.32.94,0,1.58-1.9,2.54-.31,4.44,1.27,6,1.6,1.27,1.6,2.53,1.9,4.44a18.31,18.31,0,0,0,1.27,7,22.73,22.73,0,0,1-13.3-20.6ZM25.87,58.51a22.53,22.53,0,0,1-6.65-.94,2.07,2.07,0,0,1,0-1.9,48.92,48.92,0,0,1,4.13-7,3.2,3.2,0,0,0,1.25-2.21,6.1,6.1,0,0,1,.63-2.23c1-1.58.63-2.52-.63-2.84-2.52-.63-3.79-2.85-5.69-3.8S15.11,36,13.53,37c-.63.32-1.59.63-1.59-.31,0-1.27-1.58-2.21-1.27-3.48a1.17,1.17,0,0,0-.95.31c-.32.32-.63.63-1.27.32-.63-.63-.31-1.27-.31-1.9A2.39,2.39,0,0,1,9.4,30.64c1.27-.32,2.54-.32,3.17,1.27a10.9,10.9,0,0,1,4.75-5.71A22,22,0,0,1,20.18,24c.31,0,.63.63,1.27.95.63,0,.95,0,.95-.64.32-1.58-.64-3.48-1.9-3.8a.31.31,0,0,1,.32-.31c.94-.32,2.21-1,1.9-1.9,0-1.27-1.27-1.9-2.54-1.9a4,4,0,0,0-1.9.32A10.41,10.41,0,0,1,13.53,18a21.07,21.07,0,0,1,12.34-3.8H28.4a18.58,18.58,0,0,0-5.06,1.58c1.88.32,2.21,1.27,1.58,2.86a1.15,1.15,0,0,0,.63,1.58c.63.31,1.27.31,1.58-.32.63-.94,1.9-1.25,2.86-1.58a5.24,5.24,0,0,0,3.16-2.21c0-.32.32-.32.63-.63a25.75,25.75,0,0,1,5.71,3.17c-.31,0-.31.31-.63.31-.63.63-1.58.94-.63,2.21.32.63,0,1-.31,1.27-.63.32-1,0-1.27-.31s-.32-1-1.27-1c-.32.63-1.27,1-1.27,1.9,1.58,0,1.27,1.27,1.58,2.23-1.9.31-2.54,1.27-1.58,2.84.31.63-.32.95-.63,1.27-1.27,1.9-2.53,3.17-2.53,5.38s1.58,4.44,4.11,4.11c2.86-.31,2.86-.31,3.8,2.23,0,.31.32.63.32.94.31.63.63,1.27.31,1.9-.94,2.54.32,4.44,1.27,6.34a4.37,4.37,0,0,0,.94,1.25,21.05,21.05,0,0,1-15.84,7Zm0,0"/></g></g></svg>