<svg xmlns="http://www.w3.org/2000/svg" viewBox="0 0 50 50"><defs><style>.cls-1{fill:#14b4e4;}</style></defs><title>reason3</title><g id="Capa_2" data-name="Capa 2"><g id="Layer_2" data-name="Layer 2"><path class="cls-1" d="M25.06,0A24.34,24.34,0,0,1,34.8,1.95,25.16,25.16,0,0,1,48.05,15.2,24.32,24.32,0,0,1,50,24.94V50H25.06a24.45,24.45,0,0,1-9.69-1.95A25.26,25.26,0,0,1,1.95,34.63,24.41,24.41,0,0,1,0,24.94,24.29,24.29,0,0,1,1.95,15.2a24.77,24.77,0,0,1,5.4-7.91,25.73,25.73,0,0,1,8-5.35A24.48,24.48,0,0,1,25.06,0Zm15,40.09V24.94a14.66,14.66,0,0,0-1.17-5.84,15.12,15.12,0,0,0-8-8,14.67,14.67,0,0,0-5.84-1.17,15,15,0,0,0-14,9.19,14.68,14.68,0,0,0-1.17,5.84,15.2,15.2,0,0,0,4.4,10.75,15.2,15.2,0,0,0,10.75,4.4Z"/></g></g></svg>